<?xml version="1.0" encoding="utf-8"?>
<!-- Generator: Adobe Illustrator 21.0.0, SVG Export Plug-In . SVG Version: 6.00 Build 0)  -->
<svg version="1.1" id="Capa_1" xmlns="http://www.w3.org/2000/svg" xmlns:xlink="http://www.w3.org/1999/xlink" x="0px" y="0px"
	 viewBox="0 0 539.6 100" style="enable-background:new 0 0 539.6 100;" xml:space="preserve">
<style type="text/css">
	.st0{fill:#FFFFFF;}
	.st1{fill:#E2231A;}
</style>
<g>
	<path class="st0" d="M324.6,95V66c0-1.7-0.2-3-0.7-4.1s-1.1-2-1.8-2.7c-0.8-0.7-1.6-1.2-2.6-1.5c-0.9-0.3-1.9-0.5-2.8-0.5
		s-1.8,0.2-2.8,0.5c-0.9,0.3-1.8,0.8-2.6,1.4c-0.8,0.6-1.4,1.5-1.9,2.6s-0.7,2.4-0.7,4V95h-12.1V66c0-1.7-0.2-3-0.7-4.1
		s-1.1-2-1.8-2.7c-0.8-0.7-1.6-1.2-2.6-1.5s-1.9-0.5-2.8-0.5s-1.9,0.2-2.8,0.5c-1,0.3-1.8,0.8-2.6,1.5c-0.8,0.7-1.4,1.6-1.9,2.7
		c-0.5,1.1-0.7,2.5-0.7,4.1v29h-12V47h11.7v4.4c1.6-1.6,3.4-2.8,5.5-3.7s4.2-1.3,6.5-1.3c2.7,0,5.1,0.5,7.2,1.5s4,2.5,5.5,4.6
		c2-2.1,4.2-3.7,6.5-4.7s4.9-1.4,7.9-1.4c2.4,0,4.6,0.4,6.7,1.1s3.8,1.8,5.1,3.1c2,2,3.3,4.1,4.1,6.3c0.8,2.2,1.2,4.7,1.2,7.3V95
		H324.6z"/>
	<path class="st0" d="M373.4,95v-4.4c-1.6,1.7-3.4,2.9-5.5,3.7c-2.1,0.8-4.2,1.2-6.4,1.2c-2.4,0-4.5-0.4-6.4-1.1s-3.5-1.8-4.9-3.1
		c-2-2-3.3-4.1-3.9-6.3c-0.6-2.2-1-4.7-1-7.3V47h12.1v29c0,1.7,0.2,3,0.7,4.1s1.1,2,1.8,2.7c0.8,0.7,1.6,1.2,2.5,1.5
		s1.9,0.5,2.8,0.5s1.8-0.2,2.8-0.5c0.9-0.3,1.8-0.8,2.6-1.5c0.8-0.7,1.4-1.6,1.9-2.7s0.7-2.5,0.7-4.1V47h12.1v48H373.4z M368.2,39.4
		h-8l5.9-15.7h12.6L368.2,39.4z"/>
	<path class="st0" d="M429.5,86.8c-1,2-2.5,3.6-4.3,4.9s-4,2.3-6.5,2.9s-5.1,1-8,1c-1.9,0-3.7-0.1-5.5-0.2c-1.8-0.2-3.5-0.5-5.3-1
		c-1.7-0.5-3.4-1.2-5-2.1s-3.2-2.1-4.7-3.6l7.8-7.8c2,2,4.1,3.2,6.5,3.7s4.5,0.8,6.3,0.8c1,0,2.1-0.1,3.1-0.3c1-0.2,1.9-0.5,2.7-0.9
		c0.8-0.4,1.4-0.9,1.9-1.5s0.7-1.4,0.7-2.3c0-1.2-0.4-2.2-1.1-3s-2.1-1.2-4-1.4l-7.6-0.7c-4.4-0.4-7.8-1.7-10.3-3.7
		c-2.5-2.1-3.7-5.3-3.7-9.7c0-2.5,0.5-4.6,1.5-6.5s2.4-3.5,4.1-4.8s3.7-2.3,5.9-2.9c2.2-0.7,4.6-1,7.1-1c3.7,0,7.2,0.4,10.2,1.2
		c3.1,0.8,5.8,2.3,8.1,4.4l-7.4,7.5c-1.4-1.2-3.1-2.1-5.1-2.5c-2-0.5-4-0.7-6.1-0.7c-2.4,0-4.1,0.5-5.2,1.4s-1.6,2-1.6,3.2
		c0,0.4,0.1,0.9,0.2,1.3c0.1,0.5,0.4,0.9,0.7,1.2c0.4,0.4,0.9,0.7,1.5,1s1.5,0.5,2.5,0.6l7.6,0.7c4.8,0.5,8.4,2,10.7,4.4
		c2.4,2.4,3.5,5.7,3.5,9.7C431.1,82.6,430.6,84.9,429.5,86.8z"/>
	<path class="st0" d="M437.4,38.8V29h12.4v9.8H437.4z M437.6,95V47h12.1v48H437.6z"/>
	<path class="st0" d="M487.2,94c-2.6,1.1-5.5,1.6-8.8,1.6c-2.4,0-4.9-0.4-7.4-1.1c-2.6-0.7-4.9-2-6.9-3.9c-2.1-1.9-3.8-4.4-5.2-7.6
		c-1.4-3.2-2-7.2-2-12c0-4.9,0.7-8.9,2-12c1.4-3.2,3.1-5.7,5.2-7.5s4.4-3.1,6.9-3.9c2.6-0.7,5-1.1,7.4-1.1c3.3,0,6.3,0.5,8.8,1.6
		c2.5,1,4.9,2.7,7.1,4.9l-8.1,8.1c-1.2-1.4-2.4-2.3-3.6-2.9c-1.2-0.6-2.6-0.9-4.1-0.9c-2.8,0-5.1,1-6.8,3.1c-0.9,1.2-1.6,2.6-2,4.2
		c-0.4,1.7-0.6,3.8-0.6,6.4c0,4.9,0.9,8.5,2.7,10.7c1.7,2.1,4,3.1,6.8,3.1c1.6,0,3-0.3,4.1-0.9c1.2-0.6,2.4-1.6,3.6-2.9l8.1,8
		C492.1,91.2,489.7,92.9,487.2,94z"/>
	<path class="st0" d="M523.9,95v-4.1c-1.6,1.6-3.3,2.8-5,3.5s-4,1.1-6.8,1.1c-5.3,0-9.4-1.4-12.2-4.2c-1.3-1.4-2.3-2.9-2.9-4.8
		c-0.7-1.8-1-3.8-1-6c0-1.9,0.3-3.7,1-5.4c0.7-1.7,1.7-3.2,3-4.4c1.3-1.3,3-2.3,5.1-3s4.5-1.1,7.2-1.1h11.3v-2.4
		c0-2.6-0.7-4.6-2.1-5.8c-1.4-1.2-3.7-1.8-6.9-1.8c-1.2,0-2.2,0.1-3,0.2c-0.9,0.2-1.6,0.4-2.3,0.7c-0.7,0.3-1.4,0.7-2,1.2
		s-1.2,1.1-1.8,1.8l-7.7-7.5c2.3-2.6,4.8-4.3,7.4-5.3c2.6-0.9,5.9-1.4,9.9-1.4c6.8,0,11.9,1.4,15.4,4.2s5.2,7.1,5.2,12.7V95H523.9z
		 M523.6,74.7h-9.4c-2.1,0-3.8,0.5-4.9,1.4c-1.2,1-1.7,2.3-1.7,4s0.6,3,1.7,4s2.9,1.5,5.2,1.5c1.6,0,3.1-0.1,4.2-0.4
		c1.2-0.2,2.3-0.9,3.3-1.9c1.2-1.1,1.7-3.1,1.7-6.1L523.6,74.7L523.6,74.7z"/>
</g>
<polygon class="st1" points="219.6,46.5 248.6,17.5 240.9,9.9 211.9,38.9 "/>
<rect x="188.5" y="3.8" class="st1" width="10.7" height="31.1"/>
<rect x="224.9" y="58.6" class="st1" width="31.8" height="10.8"/>
<path class="st1" d="M201.8,79.4c-2.5,2.7-5.7,3.9-9.4,3.9c-3.6,0-6.7-1.3-9.2-3.9c-2.5-2.7-3.9-5.8-3.9-9.4c0-3.8,1.4-6.9,3.9-9.5
	c2.5-2.7,5.7-3.9,9.2-3.8c3.7-0.1,6.8,1.2,9.5,3.8c2.4,2.5,3.7,5.7,3.8,9.5C205.6,73.6,204.3,76.7,201.8,79.4 M210.2,52.1
	c-5-5-11-7.4-17.8-7.4s-12.7,2.4-17.6,7.4c-5,5-7.4,11-7.4,17.9s2.4,13,7.4,17.8c4.8,5,10.7,7.5,17.6,7.5c6.8,0,12.8-2.5,17.8-7.5
	c4.9-4.9,7.3-10.9,7.3-17.8S215.1,57.1,210.2,52.1"/>
<path class="st1" d="M34.2,32.3c-8.7-0.1-15.8,2.9-21.8,9.1c-6.1,6.1-9.1,13.4-9.1,22.1c0,8.6,3,16.1,9.1,22.2c6,6,13.2,9,21.8,9
	c6.9,0,13.3-2.1,18.8-6.4c5.4-4.4,9-9.8,10.9-16.5H51.3c-1.6,3.2-3.9,5.9-6.8,8c-3.2,2-6.6,3-10.3,3c-5.3,0-9.8-2-13.5-5.7
	c-3.8-3.8-5.7-8.3-5.5-13.6c-0.1-5.3,1.7-9.8,5.5-13.6c3.7-3.7,8.2-5.7,13.5-5.7c3.7,0,7.1,1,10.3,3.1c2.9,2,5.2,4.7,6.8,8h12.6
	C62.1,48.6,58.5,43,53,38.8C47.5,34.4,41.2,32.2,34.2,32.3"/>
<path class="st1" d="M115.6,71.8l2.3-1.3v4.9c0,4.2-1.2,7.1-3.3,8.7c-2.3,1.6-4.7,2.4-7.5,2.4c-1.7,0-3.1-0.5-4.3-1.4
	c-1.1-1-1.7-2.5-1.7-4.7c0-2.4,0.9-4.2,2.9-5.4c1.2-0.7,3.1-1.3,5.7-1.6L115.6,71.8z M110.5,44.6c-8.1-0.1-13.8,2.1-17,6.4
	c-2.1,2.7-3.1,6.1-3.5,10.5h12c0.2-2.1,0.9-3.5,1.7-4.4c1.3-1.6,3.3-2.4,6.4-2.3c2.5-0.1,4.5,0.3,5.9,1.2c1.4,0.7,2,2.1,2.1,4.1
	c0,1.6-0.9,2.9-2.8,3.7l-9.3,1.5c-4.3,0.6-7.7,1.6-10.4,3.1c-4.5,2.7-6.7,6.9-6.6,13.1c-0.1,4.3,1.3,7.7,4,10.3
	c2.4,2.1,5.8,3.2,9.8,3.4c6.6-0.1,11.8-1.7,15.5-5v5h12V59.6c0-5.8-2.1-9.8-6-11.9C120.3,45.5,115.7,44.5,110.5,44.6"/>
<rect x="70" y="32.3" class="st1" width="12" height="62.7"/>
<path class="st1" d="M158.5,46.3c-3.2,1.3-6.1,3.5-8.6,6.8V47l-11.4-0.1V95h11.9V72c0-3.9,0.5-6.7,1.5-8.5c0.8-1.8,2.3-3.3,4.2-4.6
	c2.1-1.4,4.3-2.1,6.6-2.1l3.7,0.2l-0.1-12.3l-3.1,0.2L158.5,46.3z"/>
</svg>
