<?xml version="1.0" encoding="utf-8"?><svg version="1.1" id="Layer_1" xmlns="http://www.w3.org/2000/svg" xmlns:xlink="http://www.w3.org/1999/xlink" x="0px" y="0px"  viewBox="0 0 258 69" style="enable-background:new 0 0 258 69;" xml:space="preserve"><style type="text/css"> .st0{fill:#FFFFFF;}</style><g> <path class="st0" d="M34.6,67.7V39.5L25.2,58h-6.4L9.4,39.5v28.2H0V19.1h9.4l12.7,26.4l12.7-26.4h9.4v48.6  C44,67.7,34.6,67.7,34.6,67.7z M56.5,27.6c-3,0-5.5-2.4-5.5-5.5s2.4-5.5,5.5-5.5c1.5,0,2.7,0.6,3.9,1.5c0.9,0.9,1.5,2.4,1.5,3.9  C61.9,24.9,59.5,27.6,56.5,27.6L56.5,27.6L56.5,27.6z M51.9,67.7V31.9h8.8v35.5L51.9,67.7L51.9,67.7z"/> <g>  <path class="st0" d="M230.4,31.6L251.9,10l-5.8-5.8l-21.6,21.6L230.4,31.6L230.4,31.6z M207.6,0h7.9v23.1h-7.9V0z M234.3,40.7H258   v7.9h-23.7V40.7L234.3,40.7z M217.3,55.8c-3.6,3.9-9.7,3.9-13.7,0.3l-0.3-0.3c-1.8-1.8-3-4.2-3-7c0-2.7,0.9-5.2,3-7   c1.8-1.8,4.2-3,7-2.7c2.7,0,5.2,0.9,7,2.7C221.3,45.8,221.3,52.2,217.3,55.8 M223.7,35.5c-3.3-3.6-8.2-5.5-13.1-5.5   c-4.9,0-9.7,1.8-13.1,5.5c-3.6,3.3-5.5,8.2-5.5,13.4c0,4.9,1.8,9.7,5.5,13.4c3.3,3.6,8.2,5.8,13.1,5.5c10.3,0,18.5-8.5,18.5-18.8   C229.2,44,227,39.2,223.7,35.5 M93.2,20.9c-6.1-0.3-12.1,2.1-16.1,6.7c-4.6,4.2-7,10.3-6.7,16.4c0,6.1,2.4,12.1,6.7,16.4   s10,6.7,16.1,6.7c5.2,0,10-1.5,14-4.9c3.9-3,6.7-7.3,8.2-12.1h-9.4c-1.2,2.4-3,4.2-5.2,5.8c-2.4,1.5-4.9,2.1-7.6,2.1   c-3.6,0-7.3-1.5-10-4.2c-5.5-5.8-5.5-14.6,0-20.3c4.6-4.9,12.1-5.5,17.6-1.8c2.1,1.5,3.9,3.6,5.2,5.8h9.4   c-1.2-4.9-3.9-9.1-8.2-12.1C103.2,22.8,98.3,20.9,93.2,20.9 M153.6,50.4l1.8-0.9v3.6c0.3,2.4-0.6,4.9-2.4,6.4   c-1.5,1.2-3.6,1.8-5.5,1.8c-1.2,0-2.1-0.3-3-0.9c-0.9-1.2-1.5-2.4-1.2-3.9c0.3-1.5,0.9-2.7,2.1-3.6c1.2-0.6,2.7-1.2,4.2-1.2   L153.6,50.4L153.6,50.4z M149.6,30.4c-6.1,0-10.3,1.5-12.4,4.9c-1.5,2.4-2.4,4.9-2.4,7.9h8.8c0-1.2,0.6-2.4,1.2-3.3   c1.2-1.2,3-1.8,4.9-1.8c1.5-0.3,3,0.3,4.2,0.9c0.9,0.6,1.5,1.8,1.5,3c0,1.2-0.9,2.4-2.1,2.7l-7,1.2c-2.7,0.3-5.2,1.2-7.6,2.4   c-3.3,2.1-5.2,5.8-4.9,9.7c-0.3,2.7,0.9,5.8,3,7.6c2.1,1.5,4.6,2.4,7.3,2.4c4.2,0.3,8.2-1.2,11.5-3.6V68h8.8V41.6   c0.3-3.6-1.5-7-4.6-8.8C156.9,31,153.3,30,149.6,30.4"/>  <path class="st0" d="M119.6,20.9h8.8v46.4h-8.8V20.9z M185.2,31.6c-2.4,0.9-4.9,2.7-6.4,5.2v-4.6h-8.5V68h8.8V51   c-0.3-2.1,0.3-4.2,1.2-6.4c0.6-1.5,1.8-2.7,3-3.3c1.5-0.9,3-1.5,4.9-1.5l2.7,0.3V31l-2.4,0.3L185.2,31.6L185.2,31.6z"/> </g></g></svg>